<?xml version="1.0" encoding="UTF-8" standalone="no"?><!-- Created with Inkscape (http://www.inkscape.org/) -->

<svg xmlns:cc="http://creativecommons.org/ns#" xmlns:dc="http://purl.org/dc/elements/1.1/"
    xmlns:inkscape="http://www.inkscape.org/namespaces/inkscape" xmlns:osb="http://www.openswatchbook.org/uri/2009/osb"
    xmlns:rdf="http://www.w3.org/1999/02/22-rdf-syntax-ns#" xmlns:sodipodi="http://sodipodi.sourceforge.net/DTD/sodipodi-0.dtd"
    style="enable-background:new" height="12mm" id="svg2383" version="1.1" viewBox="0 0 12 12.141563" width="12mm" xmlns="http://www.w3.org/2000/svg">
    <defs id="defs2377">
        <linearGradient id="linearGradient2276" osb:paint="solid">
            <stop style="stop-color:#ff0000;stop-opacity:1;" id="stop2274" offset="0" />
        </linearGradient>
    </defs>
    <sodipodi:namedview bordercolor="#666666" borderopacity="1.0" fit-margin-bottom="0" fit-margin-left="0" fit-margin-right="0" fit-margin-top="0"
        id="base" pagecolor="#ffffff" scale-x="1" showgrid="false" showguides="false" />
    <metadata id="metadata2380">
        <rdf:RDF>
            <cc:Work rdf:about="">
                <dc:format>image/svg+xml</dc:format>
                <dc:type rdf:resource="http://purl.org/dc/dcmitype/StillImage" />
                <dc:title></dc:title>
            </cc:Work>
        </rdf:RDF>
    </metadata>
    <g style="display:inline" id="layer1" transform="translate(-107.90782,-57.77092)" inkscape:groupmode="layer" inkscape:label="Background"
        sodipodi:insensitive="true">
        <rect
            style="opacity:1;fill:#29b6f6;fill-opacity:1;fill-rule:nonzero;stroke:none;stroke-width:0.03602532;stroke-linecap:round;stroke-linejoin:round;stroke-miterlimit:4;stroke-dasharray:none;stroke-opacity:1;paint-order:stroke markers fill"
            height="12.141562" id="rect862" width="12.141562" x="107.88652" y="57.77092" />
    </g>
    <g style="display:inline;opacity:1" id="layer6" transform="translate(-0.03341332,0.12134131)" inkscape:groupmode="layer"
        inkscape:label="Foreground">
        <path
            style="display:inline;opacity:1;fill:#000000;fill-opacity:1;stroke:none;stroke-width:0.03079874;stroke-linecap:round;stroke-linejoin:round;stroke-miterlimit:4;stroke-dasharray:none;stroke-opacity:1;paint-order:stroke markers fill"
            d="m 3.9192338,4.1756454 -0.8742954,1.1465922 -1.262182,1.6505092 2.3129792,6.837e-4 2.1081513,0.00364 4.1247791,-0.00432 L 7.5817662,3.2432783 5.4452891,6.0464497 4.9025882,5.3853544 Z"
            id="path2975" inkscape:connector-curvature="0" sodipodi:nodetypes="cccccccccc" />
        <g style="font-style:normal;font-weight:normal;font-size:1.05833328px;line-height:1.25;font-family:sans-serif;letter-spacing:0px;word-spacing:0px;display:inline;opacity:1;fill:#1a1a1a;fill-opacity:1;stroke:none;stroke-width:0.26458332"
            aria-label="01011101" id="text7012" transform="matrix(1.4761179,0,0,1.5030952,-0.93526072,-2.098597)">
            <path
                style="font-style:normal;font-variant:normal;font-weight:bold;font-stretch:normal;font-size:1.05833328px;font-family:sans-serif;-inkscape-font-specification:'sans-serif Bold';fill:#1a1a1a;stroke-width:0.26458332"
                d="m 2.3361491,6.8039253 q 0,-0.144694 -0.027389,-0.2036052 -0.026872,-0.059428 -0.09095,-0.059428 -0.064079,0 -0.091467,0.059428 -0.027389,0.058911 -0.027389,0.2036052 0,0.1462443 0.027389,0.2061889 0.027388,0.059945 0.091467,0.059945 0.063562,0 0.09095,-0.059945 0.027389,-0.059945 0.027389,-0.2061889 z m 0.1989542,0.00155 q 0,0.1917195 -0.082682,0.2961059 -0.082682,0.1038696 -0.234611,0.1038696 -0.1524455,0 -0.2351278,-0.1038696 Q 1.9,6.9971951 1.9,6.8054756 1.9,6.6132393 1.982682,6.5093696 2.065364,6.4049832 2.2178098,6.4049832 q 0.1519287,0 0.234611,0.1043864 0.082682,0.1038697 0.082682,0.2961057 z"
                id="path111" inkscape:connector-curvature="0" />
            <path
                style="font-style:normal;font-variant:normal;font-weight:bold;font-stretch:normal;font-size:1.05833328px;font-family:sans-serif;-inkscape-font-specification:'sans-serif Bold';fill:#1a1a1a;stroke-width:0.26458332"
                d="M 2.7097697,7.0530057 H 2.8854695 V 6.5543281 L 2.7051188,6.5915352 V 6.4561429 L 2.884436,6.4189359 H 3.0735717 V 7.0530057 H 3.2492716 V 7.190465 H 2.7097697 Z"
                id="path113" inkscape:connector-curvature="0" />
            <path
                style="font-style:normal;font-variant:normal;font-weight:bold;font-stretch:normal;font-size:1.05833328px;font-family:sans-serif;-inkscape-font-specification:'sans-serif Bold';fill:#1a1a1a;stroke-width:0.26458332"
                d="m 3.8089273,6.8039253 q 0,-0.144694 -0.027389,-0.2036052 -0.026872,-0.059428 -0.09095,-0.059428 -0.064079,0 -0.091467,0.059428 -0.027388,0.058911 -0.027388,0.2036052 0,0.1462443 0.027388,0.2061889 0.027389,0.059945 0.091467,0.059945 0.063562,0 0.09095,-0.059945 0.027389,-0.059945 0.027389,-0.2061889 z m 0.1989542,0.00155 q 0,0.1917195 -0.082682,0.2961059 -0.082682,0.1038696 -0.234611,0.1038696 -0.1524455,0 -0.2351278,-0.1038696 -0.082682,-0.1043864 -0.082682,-0.2961059 0,-0.1922363 0.082682,-0.296106 0.082682,-0.1043864 0.2351278,-0.1043864 0.1519287,0 0.234611,0.1043864 0.082682,0.1038697 0.082682,0.296106 z"
                id="path115" inkscape:connector-curvature="0" />
            <path
                style="font-style:normal;font-variant:normal;font-weight:bold;font-stretch:normal;font-size:1.05833328px;font-family:sans-serif;-inkscape-font-specification:'sans-serif Bold';fill:#1a1a1a;stroke-width:0.26458332"
                d="M 4.1825478,7.0530057 H 4.3582477 V 6.5543281 L 4.1778969,6.5915352 V 6.4561429 L 4.3572141,6.4189359 H 4.5463499 V 7.0530057 H 4.7220497 V 7.190465 H 4.1825478 Z"
                id="path117" inkscape:connector-curvature="0" />
            <path
                style="font-style:normal;font-variant:normal;font-weight:bold;font-stretch:normal;font-size:1.05833328px;font-family:sans-serif;-inkscape-font-specification:'sans-serif Bold';fill:#1a1a1a;stroke-width:0.26458332"
                d="M 4.918937,7.0530057 H 5.0946368 V 6.5543281 L 4.9142861,6.5915352 V 6.4561429 L 5.0936033,6.4189359 H 5.282739 V 7.0530057 H 5.4584389 V 7.190465 H 4.918937 Z"
                id="path119" inkscape:connector-curvature="0" />
            <path
                style="font-style:normal;font-variant:normal;font-weight:bold;font-stretch:normal;font-size:1.05833328px;font-family:sans-serif;-inkscape-font-specification:'sans-serif Bold';fill:#1a1a1a;stroke-width:0.26458332"
                d="M 5.6553261,7.0530057 H 5.831026 V 6.5543281 L 5.6506752,6.5915352 V 6.4561429 L 5.8299925,6.4189359 H 6.0191282 V 7.0530057 H 6.194828 V 7.190465 H 5.6553261 Z"
                id="path121" inkscape:connector-curvature="0" />
            <path
                style="font-style:normal;font-variant:normal;font-weight:bold;font-stretch:normal;font-size:1.05833328px;font-family:sans-serif;-inkscape-font-specification:'sans-serif Bold';fill:#1a1a1a;stroke-width:0.26458332"
                d="m 6.7544836,6.8039253 q 0,-0.144694 -0.027389,-0.2036052 -0.026872,-0.059428 -0.09095,-0.059428 -0.064079,0 -0.091467,0.059428 -0.027388,0.058911 -0.027388,0.2036052 0,0.1462443 0.027388,0.2061889 0.027388,0.059945 0.091467,0.059945 0.063562,0 0.09095,-0.059945 0.027389,-0.059945 0.027389,-0.2061889 z m 0.1989542,0.00155 q 0,0.1917195 -0.082682,0.2961059 -0.082682,0.1038696 -0.2346109,0.1038696 -0.1524455,0 -0.2351278,-0.1038696 -0.082682,-0.1043864 -0.082682,-0.2961059 0,-0.1922363 0.082682,-0.296106 0.082682,-0.1043864 0.2351278,-0.1043864 0.1519287,0 0.2346109,0.1043864 0.082682,0.1038697 0.082682,0.296106 z"
                id="path123" inkscape:connector-curvature="0" />
            <path
                style="font-style:normal;font-variant:normal;font-weight:bold;font-stretch:normal;font-size:1.05833328px;font-family:sans-serif;-inkscape-font-specification:'sans-serif Bold';fill:#1a1a1a;stroke-width:0.26458332"
                d="M 7.1281042,7.0530057 H 7.3038041 V 6.5543281 L 7.1234533,6.5915352 V 6.4561429 L 7.3027705,6.4189359 H 7.4919063 V 7.0530057 H 7.6676061 V 7.190465 H 7.1281042 Z"
                id="path125" inkscape:connector-curvature="0" />
        </g>
    </g>
</svg>
